PathFileType	4	(x/y/z)	S01_P20_T04
DataRate	CameraRate	NumFrames	NumMarkers	Units	OrigDataRate	OrigDataStartFrame	OrigNumFrames
240	240	9	51	mm	240	305	406
Frame#	Time	Sternum			R.Acromium			L.Acromium			Top.Head			R.ASIS			L.ASIS			R.PSIS			L.PSIS			R.Great.Tro			L.Great.Tro			R.Iliac.Crest			L.Iliac.Crest			V.Sacral			R.Thigh.Upper.Post			R.Thigh.Lower.Ant			R.Thigh.Lower.Post			R.Thigh.Upper.Ant			R.Knee.Lat			R.Knee.Med			R.Shank.Upper.Post			R.Shank.Lower.Ant			R.Shank.Lower.Post			R.Shank.Upper.Ant			R.Ankle.Lat			R.Ankle.Med			R.Heel.Upper			R.Heel.Med			R.Heel.Lat			R.Toe.Lat			R.Toe.Med			R.Toe.Tip			L.Thigh.Upper.Post			L.Thigh.Lower.Ant			L.Thigh.Lower.Post			L.Thigh.Upper.Ant			L.Knee.Lat			L.Knee.Med			L.Shank.Upper.Post			L.Shank.Lower.Ant			L.Shank.Lower.Post			L.Shank.Upper.Ant			L.Ankle.Lat			L.Ankle.Med			L.Heel.Upper			L.Heel.Med			L.Heel.Lat			L.Toe.Lat			L.Toe.Med			L.Toe.Tip			Cervical.Spine			Back			
		X1	Y1	Z1	X2	Y2	Z2	X3	Y3	Z3	X4	Y4	Z4	X5	Y5	Z5	X6	Y6	Z6	X7	Y7	Z7	X8	Y8	Z8	X9	Y9	Z9	X10	Y10	Z10	X11	Y11	Z11	X12	Y12	Z12	X13	Y13	Z13	X14	Y14	Z14	X15	Y15	Z15	X16	Y16	Z16	X17	Y17	Z17	X18	Y18	Z18	X19	Y19	Z19	X20	Y20	Z20	X21	Y21	Z21	X22	Y22	Z22	X23	Y23	Z23	X24	Y24	Z24	X25	Y25	Z25	X26	Y26	Z26	X27	Y27	Z27	X28	Y28	Z28	X29	Y29	Z29	X30	Y30	Z30	X31	Y31	Z31	X32	Y32	Z32	X33	Y33	Z33	X34	Y34	Z34	X35	Y35	Z35	X36	Y36	Z36	X37	Y37	Z37	X38	Y38	Z38	X39	Y39	Z39	X40	Y40	Z40	X41	Y41	Z41	X42	Y42	Z42	X43	Y43	Z43	X44	Y44	Z44	X45	Y45	Z45	X46	Y46	Z46	X47	Y47	Z47	X48	Y48	Z48	X49	Y49	Z49	X50	Y50	Z50	X51	Y51	Z51	

305	1.2667	289.36	1297.7	261.87	169.02	1547.2	433.8	161.34	1564	104.56	151.3	1873.3	272.7	231.27	1047.9	417.93	252.47	1044.7	152.21	4.233	1088.6	310.23	8.1798	1086.8	206.94	152.08	997.02	495.66	151.28	992.84	67.849	140.44	1148.8	474.58	146.44	1126.7	71.774	-7.6387	1051.2	256.09	220.49	694.71	492.36	307.39	641.4	481.89	245.64	609.52	478.03	285.14	728.96	493.76	274.6	550.11	477.43	304.4	549.28	333.77	142.55	455.33	479.66	142.52	353.11	438.56	97.073	403.84	463.84	185.97	408.46	461.86	-27.903	251.69	412.92	12.27	233.27	325.3	-89.217	272.31	343.35	-94.552	241.44	312.3	-108.57	243.26	375.71	9.8129	107.06	452.47	55.947	92.653	337.57	108.71	67.312	400.62	135.01	705.36	92.738	223.4	639.28	96.502	148.88	617.03	112.26	200.79	729.85	76.078	204.83	533.52	111.17	223.04	541.06	248.15	146.8	396.82	90.004	203.04	304.68	117.57	144.12	318.91	94.137	206.48	381.42	109.32	117.07	105.76	132.52	141.56	118.81	228.27	46.108	74.164	176.69	54.561	49.688	211.09	55.491	47.209	148.81	264.28	39.223	115.49	287.69	51.303	237.69	350.48	62.031	186.89	76.023	1611.5	273.25	-10.748	1297.9	281.66
306	1.2708	294.77	1298.5	262.04	174.2	1547.9	433.75	167.25	1564.7	104.48	156.95	1873.9	272.56	236.56	1048.9	417.83	257.87	1045.3	152.22	9.6047	1089.4	310.24	13.602	1087.5	206.96	157.57	998.22	495.81	156.38	993.22	67.945	145.75	1149.9	474.38	151.93	1127.3	71.734	-2.2817	1052	256.14	228.2	696.16	492.72	315.47	643.51	481.71	253.94	611.16	478.22	292.59	730.9	493.73	283.29	551.87	477.41	312.91	551.41	333.8	152.54	454.81	479.56	154.41	352.6	438.43	108.02	402.48	463.59	196.81	408.73	461.82	-14.144	247.98	412.6	26.513	230.45	325.07	-75.924	267.25	342.99	-80.506	236.22	311.98	-94.625	237.78	375.37	26.826	104.41	452.42	73.353	90.926	337.47	126.56	66.859	400.57	137.62	706.03	92.876	225.47	639.21	96.414	150.79	617.57	112.24	203.59	729.95	76.086	205.97	533.51	110.98	224.57	540.81	247.96	147.4	396.92	89.924	203.43	304.64	117.37	144.51	319.01	94.051	207.06	381.38	109.1	117.12	105.84	132.52	141.61	118.89	228.22	46.146	74.262	176.69	54.525	49.765	211.1	55.515	47.296	148.82	264.3	39.18	115.46	287.71	51.277	237.66	350.5	61.949	186.86	81.671	1612.1	272.97	-5.1943	1298.7	281.19
307	1.275	300.19	1299.2	262.2	179.4	1548.5	433.71	173.16	1565.3	104.41	162.6	1874.4	272.42	241.86	1049.9	417.74	263.26	1045.8	152.24	14.97	1090.1	310.27	19.019	1088.2	207	163.08	999.35	495.96	161.49	993.55	68.054	151.06	1151	474.19	157.41	1127.8	71.701	3.0748	1052.7	256.19	235.85	697.56	493.08	323.48	645.56	481.52	262.15	612.75	478.39	299.98	732.76	493.69	291.88	553.57	477.38	321.3	553.46	333.83	162.49	454.17	479.46	166.33	352.01	438.3	118.98	400.99	463.35	207.64	408.92	461.78	-0.24093	244.14	412.31	40.908	227.49	324.88	-62.454	261.99	342.65	-66.258	230.8	311.68	-80.483	232.11	375.05	44.023	101.72	452.44	90.95	89.158	337.47	144.58	66.418	400.63	140.25	706.67	93.015	227.56	639.13	96.343	152.73	618.09	112.22	206.4	730.05	76.116	207.12	533.49	110.79	226.1	540.54	247.79	148.01	397.02	89.855	203.84	304.59	117.18	144.91	319.11	93.971	207.67	381.33	108.89	117.18	105.93	132.53	141.66	118.96	228.19	46.189	74.358	176.7	54.503	49.838	211.11	55.538	47.382	148.84	264.32	39.139	115.43	287.73	51.246	237.63	350.53	61.864	186.83	87.325	1612.6	272.7	0.36683	1299.4	280.74
308	1.2792	305.62	1299.8	262.36	184.62	1549.1	433.68	179.06	1565.9	104.35	168.25	1874.8	272.3	247.17	1050.8	417.65	268.65	1046.2	152.26	20.331	1090.8	310.31	24.431	1088.8	207.06	168.59	1000.4	496.12	166.59	993.82	68.175	156.36	1151.9	474.03	162.88	1128.3	71.677	8.4303	1053.3	256.26	243.43	698.9	493.43	331.41	647.52	481.31	270.29	614.28	478.55	307.32	734.55	493.63	300.36	555.19	477.33	329.55	555.44	333.84	172.42	453.43	479.36	178.28	351.34	438.18	129.95	399.39	463.12	218.45	409.04	461.73	13.807	240.17	412.04	55.452	224.41	324.71	-48.804	256.55	342.31	-51.803	225.19	311.4	-66.142	226.27	374.74	61.393	99.014	452.53	108.73	87.366	337.55	162.76	66.002	400.79	142.91	707.3	93.153	229.68	639.04	96.29	154.7	618.6	112.2	209.24	730.13	76.169	208.29	533.46	110.63	227.62	540.26	247.64	148.64	397.11	89.795	204.26	304.53	117	145.33	319.2	93.9	208.29	381.26	108.7	117.23	106.01	132.54	141.71	119.02	228.16	46.237	74.452	176.72	54.497	49.905	211.14	55.56	47.468	148.86	264.33	39.1	115.4	287.75	51.211	237.6	350.56	61.776	186.81	92.987	1613.1	272.44	5.9346	1300	280.31
309	1.2833	311.05	1300.4	262.52	189.84	1549.7	433.67	184.97	1566.4	104.3	173.89	1875.2	272.2	252.49	1051.7	417.56	274.03	1046.6	152.29	25.688	1091.4	310.36	29.837	1089.3	207.13	174.1	1001.4	496.28	171.71	994.04	68.308	161.66	1152.8	473.89	168.35	1128.7	71.662	13.784	1053.9	256.35	250.96	700.17	493.77	339.25	649.41	481.1	278.34	615.75	478.7	314.6	736.26	493.56	308.74	556.75	477.26	337.68	557.34	333.84	182.32	452.57	479.27	190.27	350.6	438.07	140.95	397.67	462.9	229.23	409.09	461.69	28	236.08	411.79	70.145	221.22	324.58	-34.969	250.94	341.99	-37.136	219.42	311.16	-51.599	220.28	374.46	78.926	96.299	452.7	126.68	85.565	337.71	181.07	65.624	401.05	145.59	707.9	93.288	231.82	638.93	96.254	156.69	619.09	112.18	212.1	730.2	76.245	209.48	533.41	110.47	229.13	539.96	247.5	149.3	397.2	89.744	204.7	304.46	116.84	145.76	319.29	93.836	208.93	381.19	108.53	117.28	106.09	132.56	141.75	119.08	228.13	46.289	74.544	176.74	54.51	49.969	211.17	55.582	47.553	148.89	264.35	39.062	115.38	287.77	51.172	237.57	350.58	61.684	186.78	98.657	1613.5	272.2	11.508	1300.6	279.89
310	1.2875	316.49	1300.9	262.67	195.09	1550.1	433.67	190.88	1566.8	104.25	179.54	1875.5	272.1	257.82	1052.4	417.49	279.4	1046.9	152.32	31.043	1091.9	310.43	35.238	1089.8	207.21	179.62	1002.3	496.46	176.82	994.2	68.453	166.95	1153.6	473.78	173.81	1129	71.656	19.136	1054.4	256.44	258.41	701.38	494.1	347.02	651.2	480.88	286.31	617.15	478.83	321.82	737.88	493.47	317.01	558.23	477.19	345.68	559.15	333.82	192.19	451.6	479.18	202.28	349.78	437.97	151.96	395.85	462.7	240	409.07	461.65	42.34	231.9	411.58	84.982	217.93	324.49	-20.945	245.17	341.68	-22.254	213.51	310.94	-36.851	214.16	374.2	96.614	93.589	452.94	144.8	83.771	337.97	199.51	65.295	401.42	148.32	708.48	93.421	233.99	638.82	96.236	158.72	619.57	112.16	214.99	730.26	76.343	210.69	533.36	110.33	230.64	539.65	247.39	149.97	397.28	89.701	205.15	304.39	116.69	146.22	319.38	93.78	209.6	381.1	108.37	117.34	106.18	132.58	141.8	119.13	228.12	46.346	74.634	176.77	54.54	50.029	211.21	55.603	47.639	148.93	264.37	39.026	115.35	287.79	51.127	237.55	350.61	61.588	186.76	104.33	1613.9	271.97	17.086	1301.1	279.49
311	1.2917	321.93	1301.4	262.83	200.35	1550.5	433.68	196.78	1567.2	104.22	185.18	1875.8	272.01	263.15	1053.1	417.44	284.77	1047.2	152.36	36.396	1092.3	310.51	40.632	1090.2	207.3	185.13	1003.1	496.65	181.94	994.31	68.61	172.23	1154.3	473.7	179.26	1129.3	71.66	24.486	1054.9	256.54	265.8	702.52	494.41	354.69	652.91	480.65	294.2	618.48	478.95	328.97	739.41	493.38	325.17	559.64	477.09	353.55	560.88	333.8	202.04	450.53	479.1	214.32	348.9	437.88	162.99	393.93	462.52	250.74	408.98	461.61	56.827	227.63	411.4	99.962	214.56	324.44	-6.7298	239.26	341.4	-7.1561	207.48	310.77	-21.896	207.92	373.97	114.45	90.898	453.24	163.06	81.998	338.31	218.06	65.027	401.89	151.07	709.03	93.549	236.19	638.68	96.236	160.79	620.02	112.14	217.91	730.3	76.463	211.93	533.3	110.2	232.15	539.33	247.29	150.67	397.35	89.665	205.62	304.3	116.56	146.71	319.45	93.733	210.29	381.01	108.22	117.4	106.26	132.6	141.84	119.17	228.11	46.407	74.722	176.81	54.588	50.085	211.26	55.625	47.726	148.96	264.39	38.99	115.33	287.81	51.076	237.53	350.63	61.486	186.74	110.02	1614.2	271.75	22.666	1301.5	279.11
312	1.2958	327.39	1301.7	262.99	205.64	1550.8	433.71	202.69	1567.4	104.19	190.82	1876	271.94	268.5	1053.7	417.4	290.13	1047.3	152.4	41.751	1092.7	310.6	46.022	1090.6	207.4	190.63	1003.9	496.85	187.07	994.36	68.777	177.52	1154.8	473.65	184.72	1129.5	71.674	29.833	1055.2	256.65	273.11	703.59	494.71	362.28	654.52	480.42	301.98	619.73	479.05	336.06	740.85	493.29	333.21	560.96	476.99	361.3	562.51	333.77	211.87	449.36	479.02	226.38	347.95	437.82	174.04	391.92	462.36	261.45	408.82	461.58	71.463	223.29	411.26	115.08	211.12	324.42	7.6803	233.24	341.16	8.1586	201.33	310.63	-6.731	201.59	373.77	132.42	88.239	453.62	181.46	80.26	338.73	236.71	64.832	402.45	153.87	709.56	93.674	238.44	638.53	96.254	162.89	620.46	112.12	220.86	730.32	76.604	213.19	533.22	110.09	233.66	538.99	247.21	151.41	397.41	89.635	206.11	304.21	116.43	147.21	319.52	93.695	211.01	380.9	108.08	117.46	106.35	132.64	141.9	119.21	228.12	46.47	74.809	176.86	54.651	50.14	211.31	55.648	47.815	149	264.41	38.953	115.3	287.84	51.02	237.51	350.66	61.378	186.72	115.71	1614.4	271.55	28.25	1301.8	278.75
313	1.3	332.86	1302	263.16	210.94	1551	433.74	208.59	1567.7	104.16	196.46	1876.1	271.87	273.86	1054.2	417.38	295.49	1047.4	152.46	47.107	1093	310.7	51.405	1090.9	207.51	196.13	1004.5	497.06	192.2	994.34	68.954	182.8	1155.3	473.64	190.19	1129.6	71.699	35.18	1055.5	256.77	280.35	704.59	494.97	369.77	656.03	480.18	309.67	620.9	479.12	343.08	742.2	493.19	341.13	562.19	476.87	368.93	564.04	333.73	221.67	448.09	478.96	238.47	346.95	437.78	185.11	389.82	462.22	272.14	408.6	461.57	86.247	218.89	411.16	130.34	207.63	324.46	22.287	227.12	340.95	23.689	195.11	310.55	8.6453	195.17	373.62	150.52	85.622	454.06	200	78.573	339.24	255.46	64.719	403.1	156.71	710.06	93.794	240.72	638.37	96.289	165.03	620.87	112.1	223.86	730.32	76.765	214.49	533.13	109.98	235.17	538.64	247.15	152.17	397.47	89.612	206.62	304.11	116.32	147.74	319.58	93.665	211.77	380.77	107.96	117.52	106.43	132.68	141.96	119.24	228.13	46.535	74.895	176.91	54.727	50.193	211.37	55.672	47.906	149.05	264.43	38.917	115.28	287.86	50.958	237.49	350.68	61.263	186.71	121.41	1614.6	271.36	33.835	1302.1	278.41
